# xmcd CD database file
#
# Track frame offsets:
#	150
#	24145
#	61335
#	85955
#	119540
#	148360
#	183597
#	218592
#	288452
#
# Disc length: 4335 seconds
#
# Revision: 0
# Processed by: cddbd v1.5.1PL0 Copyright (c) Steve Scherf et al.
# Submitted via: CDex 1.51
#
DISCID=8510ed09
DTITLE=Mike Wade and the Jazz Mafia - The Broach Approach
DYEAR=1900
DGENRE=Jazz
TTITLE0=On Broadway
TTITLE1=Oracle
TTITLE2=Fall
TTITLE3=Sagjleo
TTITLE4=In A Sentimental Mood
TTITLE5=ESP
TTITLE6=One For A.L.L.
TTITLE7=Broach Approach
TTITLE8=Fall (Alternate Take)
EXTD=
EXTT0=
EXTT1=
EXTT2=
EXTT3=
EXTT4=
EXTT5=
EXTT6=
EXTT7=
EXTT8=
PLAYORDER=
